<svg id="Laag_1" data-name="Laag 1" xmlns="http://www.w3.org/2000/svg" viewBox="0 0 260.23 251.02"><defs><style>.cls-1{fill:#8a143e;}</style></defs><title>blogo</title><path class="cls-1" d="M112.59,198.62c-.74,3.42-1.82,5.85-3.22,7.29q-4.48,4.57-20.76,5.12V192.4l-77-20v89.24h89.06q46.45,0,61.45-5.31A37,37,0,0,0,184,236.61a66.77,66.77,0,0,0,5.11-18.16Z" transform="translate(-11.62 -10.66)"/><path class="cls-1" d="M88.61,61.32q11.88.18,16,1.65t6.68,7q2.56,5.58,2.56,19.48c0,2.87,0,5.54-.09,8L182.24,60.8q-2.88-13.21-8.41-21.54Q162.3,22,143.56,16.33T88.42,10.66H11.62V152.29l77-41.28Z" transform="translate(-11.62 -10.66)"/><path class="cls-1" d="M169.62,141q17.19.55,21.21,4.57t4,23v27.61a74,74,0,0,1-1.26,15.2l76.5,19.83a173,173,0,0,0,1.74-26.3V177.48q0-28.91-9.51-42.91t-36.21-20q24-5.48,32.09-15.72t8.14-36.19q0-19.9-3.11-34.11L194.77,65.24q-.43,19.19-3,23.87-3.11,5.58-14.45,5.58-2.74,0-7.68.18V78.73L92.63,120v65.2l77,20Z" transform="translate(-11.62 -10.66)"/></svg>