<svg xmlns="http://www.w3.org/2000/svg" viewBox="0 0 563.74 280.38"><defs><style>.cls-1,.cls-10,.cls-11,.cls-12,.cls-16,.cls-17,.cls-19,.cls-20,.cls-21,.cls-28,.cls-29,.cls-3,.cls-30,.cls-32,.cls-37,.cls-5,.cls-7,.cls-8{fill:none;}.cls-1,.cls-10,.cls-11,.cls-12,.cls-13,.cls-14,.cls-15,.cls-16,.cls-17,.cls-18,.cls-19,.cls-2,.cls-20,.cls-21,.cls-22,.cls-24,.cls-25,.cls-26,.cls-27,.cls-28,.cls-29,.cls-3,.cls-30,.cls-31,.cls-32,.cls-33,.cls-34,.cls-35,.cls-36,.cls-37,.cls-38,.cls-4,.cls-5,.cls-6,.cls-7,.cls-8,.cls-9{stroke:#1d1d1b;}.cls-1,.cls-12,.cls-13,.cls-14,.cls-15,.cls-2,.cls-21,.cls-27,.cls-28,.cls-3,.cls-32,.cls-36,.cls-37,.cls-38,.cls-4,.cls-6,.cls-7,.cls-8,.cls-9{stroke-linecap:round;}.cls-1,.cls-13,.cls-15,.cls-16,.cls-19,.cls-2,.cls-20,.cls-21,.cls-25,.cls-26,.cls-28,.cls-30,.cls-33,.cls-34,.cls-37,.cls-38,.cls-6,.cls-8{stroke-linejoin:round;}.cls-1,.cls-15,.cls-29,.cls-3,.cls-30,.cls-31,.cls-33,.cls-36,.cls-9{stroke-width:0.42px;}.cls-13,.cls-14,.cls-15,.cls-18,.cls-2,.cls-22,.cls-24,.cls-25,.cls-27,.cls-31,.cls-33,.cls-34,.cls-35,.cls-36,.cls-38,.cls-4,.cls-6,.cls-9{fill:#fff;}.cls-17,.cls-18,.cls-2,.cls-21,.cls-25,.cls-4{stroke-width:1.69px;}.cls-10,.cls-11,.cls-12,.cls-14,.cls-17,.cls-18,.cls-22,.cls-24,.cls-27,.cls-29,.cls-3,.cls-31,.cls-32,.cls-35,.cls-4,.cls-5,.cls-7,.cls-9{stroke-miterlimit:10;}.cls-12,.cls-13,.cls-19,.cls-22,.cls-27,.cls-37,.cls-5{stroke-width:0.64px;}.cls-11,.cls-14,.cls-20,.cls-24,.cls-6,.cls-7,.cls-8{stroke-width:0.85px;}.cls-10,.cls-16,.cls-26,.cls-28,.cls-32,.cls-34,.cls-35,.cls-38{stroke-width:0.21px;}.cls-23,.cls-26{fill:#1d1d1b;}.cls-36{stroke-miterlimit:2;}</style></defs><title>motor</title><g id="Laag_10" data-name="Laag 10"><path class="cls-1" d="M331.86,306.48c1.29-1.39,3.39-.38,4.29-.62a11.53,11.53,0,0,0,2.71-1.76l47.59,9.42c-5.33,10.62-29.83,10.62-31.78,14.37s-11.29,1.34-11.29,1.34-6.1-4.29-7.15-7.64-.6-4.31-3-4.15-2.89-5.15-2.89-5.15Z" transform="translate(-125.83 -128.3)"/><path class="cls-1" d="M341.87,315.6s1.31,6.21,9,7.82" transform="translate(-125.83 -128.3)"/><line class="cls-1" x1="229.36" y1="189.68" x2="243.67" y2="190.6"/></g><g id="Laag_8" data-name="Laag 8"><path class="cls-2" d="M331.59,294c1.7,5,6.87,17.11,9.67,18.09s39.08,4.81,46.58-1.35,7.34-10.18,7.25-22.14c-.08-11.3,2.28-20.5-12.35-18.35C368.6,272.36,326.51,279.05,331.59,294Z" transform="translate(-125.83 -128.3)"/><path class="cls-1" d="M339.75,293.25s-12.84-4.41,38.69-15.15" transform="translate(-125.83 -128.3)"/><path class="cls-1" d="M347,292.36s43.77-1.35,38.69-13" transform="translate(-125.83 -128.3)"/><path class="cls-1" d="M376.38,310.48s12.53.89,14-15.57" transform="translate(-125.83 -128.3)"/><path class="cls-3" d="M348.93,305c-4.56.09-6.27,4,0,4.13,4.81.13,14,1.11,13.53-2.06C362.05,304.53,348.93,305,348.93,305Z" transform="translate(-125.83 -128.3)"/></g><g id="Laag_4" data-name="Laag 4"><path class="cls-4" d="M308,249.54c15.87,14,45,18.51,59.73,16.49s24.42-11.2,24.73-19.91-7.78.16-7.78.16-4.67,4.67-14.78,8.87-27.22.62-35.31-2.33-26-17.27-29.71-20.84-6.84-3.11-6.84-3.11-10,0-24.77,15.44c0,0,21.51,10.54,26.8,18.78s21.16,21.78,39.51,18.51,50.54-12,52.11-22.91l.78-12.6" transform="translate(-125.83 -128.3)"/><path class="cls-5" d="M299.72,232.89s35.6,41.54,66.75,23.33" transform="translate(-125.83 -128.3)"/></g><g id="Laag_14" data-name="Laag 14"><path class="cls-3" d="M536.9,190.87s3.48,3.87.12,14" transform="translate(-125.83 -128.3)"/><path class="cls-3" d="M540.54,195.16s.57,6.5-1.95,11.31" transform="translate(-125.83 -128.3)"/><path class="cls-6" d="M538.12,204.1s11.74-12.62,29-14.89c0,0-4.6,8.47-1,38.21-2.4,1.21-21.3-3-26.49-9C533.89,211.82,538.12,204.1,538.12,204.1Z" transform="translate(-125.83 -128.3)"/><path class="cls-7" d="M566.08,227.42l1.93.41c-3.67-23.19.72-39.27.72-39.27l-1.6.65" transform="translate(-125.83 -128.3)"/><path class="cls-8" d="M579.25,229c-6.29-33.52,0-40.39,0-40.39-4.82-2.05-10.52,0-10.52,0" transform="translate(-125.83 -128.3)"/><path class="cls-7" d="M579.25,229A18.2,18.2,0,0,1,568,227.82" transform="translate(-125.83 -128.3)"/><path class="cls-7" d="M579.25,188.56s.73,17,0,40.39" transform="translate(-125.83 -128.3)"/><path class="cls-3" d="M568,198.67s3-1.58,5.62-.82" transform="translate(-125.83 -128.3)"/><path class="cls-3" d="M568.4,218s1.25,1.56,5.58.55" transform="translate(-125.83 -128.3)"/><polyline class="cls-9" points="453.3 112.92 456.53 112.92 456.53 103.22 453.3 103.22"/><path class="cls-9" d="M560.32,234.68s15.27-10.1,18.81-4.79V242.5s-1.54,5.6-13.9-.52" transform="translate(-125.83 -128.3)"/><path class="cls-3" d="M563.61,236.37s6.61-3.43,12.17-3.37" transform="translate(-125.83 -128.3)"/><path class="cls-3" d="M568.73,238.94a9.36,9.36,0,0,0,6.61-.39" transform="translate(-125.83 -128.3)"/><path class="cls-10" d="M558.64,226.83a8,8,0,0,0,5,5.88" transform="translate(-125.83 -128.3)"/><path class="cls-1" d="M547.91,203.45a18.5,18.5,0,0,1,12.4-4.78" transform="translate(-125.83 -128.3)"/><path class="cls-1" d="M549.56,214.34s6.23,3.26,11.69,2.16" transform="translate(-125.83 -128.3)"/></g><g id="Laag_2" data-name="Laag 2"><polyline class="cls-3" points="164.36 185.78 151.92 195.27 166.46 196.98"/><line class="cls-3" x1="151.01" y1="191.38" x2="166.22" y2="193.16"/><line class="cls-3" x1="165.26" y1="189.06" x2="152.65" y2="199.02"/><polyline class="cls-3" points="169.97 204.74 155.27 210.11 168.65 216.06"/><line class="cls-3" x1="155.56" y1="206.12" x2="169.55" y2="212.34"/><line class="cls-3" x1="169.85" y1="208.14" x2="154.86" y2="213.91"/><circle class="cls-11" cx="124.55" cy="209.32" r="10.64"/><ellipse class="cls-12" cx="523.29" cy="196.52" rx="5.72" ry="1.61" transform="translate(-149.93 181.44) rotate(-32.27)"/><path class="cls-3" d="M500,166.29s21.56-17.28,32.4,17.65c0,0,2.16,12,2.72,19.09" transform="translate(-125.83 -128.3)"/><path class="cls-3" d="M501.91,167.41s11.28-8.92,20.07,1.42,10.39,30.58,10.39,30.58" transform="translate(-125.83 -128.3)"/><path class="cls-13" d="M488.61,163.69c.39,3.89-12.15,18.53-16.57,20.94s-9.71,9.64-9.71,9.64a2.3,2.3,0,0,0-2.41.84s-1.13-.65,5.37-6.89,1-7.84,1-7.84l8.94-7.8Z" transform="translate(-125.83 -128.3)"/><ellipse class="cls-14" cx="451" cy="150.42" rx="11.87" ry="5.94" transform="matrix(0.3, -0.95, 0.95, 0.3, 44.61, 405.94)"/><polyline class="cls-13" points="330.37 45.58 341.4 36.91 350.63 43.26 338.57 53.78"/><ellipse class="cls-15" cx="460.3" cy="177.97" rx="3.1" ry="5.8" transform="translate(-116.86 249.31) rotate(-45)"/><path class="cls-16" d="M231.69,347.05a38.22,38.22,0,0,1-2.91-6.83,1.88,1.88,0,0,1,.85-2c.44-.21,1-.49,1.91,1,0,0,.65,1.14,1.31,2.49s1.32,2.79,2.53,5.24,1.44,2.94,1.21,3.47a1.91,1.91,0,0,1-.9.83A1.46,1.46,0,0,1,234,351,22.64,22.64,0,0,1,231.69,347.05Z" transform="translate(-125.83 -128.3)"/><circle class="cls-17" cx="125.28" cy="210.06" r="69.35"/><circle class="cls-17" cx="493.54" cy="209.19" r="69.35"/><path class="cls-11" d="M135.17,284.21h-8.69a27.45,27.45,0,0,0,0,7.11H133" transform="translate(-125.83 -128.3)"/><polyline class="cls-11" points="24.72 155.04 9.34 155.04 9.34 165.91 7.49 165.91 7.49 158.06 9.34 158.06"/><path class="cls-6" d="M225.85,242.22c-13.09,1.3-16.73-22.14-.56-23.19,18-1.17,46.12,2.3,48,2.2a68,68,0,0,0,10.91-1.44c11.67-3.35,13.32,10.68,2.39,18.37s-26.22,6-26.22,6Z" transform="translate(-125.83 -128.3)"/><path class="cls-18" d="M331.77,296.57s-87-142.41-186.83,21.91l-4.82,8a22.19,22.19,0,0,0-1.23,2.23c-.31.74-1.62,2,2,2.4s44.35,12,52.43-10.47,51.42-74,107.8-11.19c0,0,2,2.27,6.7,1.67S333,306.49,333,306.49,338.18,305.72,331.77,296.57Z" transform="translate(-125.83 -128.3)"/><path class="cls-11" d="M137,288.77l-6.33,26.93,7.45-4.45L143,293.81S143.44,284.55,137,288.77Z" transform="translate(-125.83 -128.3)"/><polyline class="cls-11" points="22.86 184.13 18.11 178.62 16.94 166.34"/><polyline class="cls-1" points="12.78 157.28 22.12 157.28 29.37 163.43 19.53 163.43"/><path class="cls-19" d="M142.89,294.21l18.27,0-9.76-8.68c-2.05-2.2-.9-3.37,1.2-1.33l10.14,7.91" transform="translate(-125.83 -128.3)"/><path class="cls-20" d="M170.63,282.3s-2.56-.63-1.92-2.91a7.14,7.14,0,0,1,1.92-2.86C175.18,271.88,205.8,246,205.8,246h9.87" transform="translate(-125.83 -128.3)"/><path class="cls-20" d="M168.93,278.63s-.95-1.91,2.37-7,9.1-14.31,9.1-14.31S186,246.47,205.8,246" transform="translate(-125.83 -128.3)"/><path class="cls-1" d="M175.89,267.31c5.14-6.56,8.56-14.85,16.82-16.12" transform="translate(-125.83 -128.3)"/><path class="cls-3" d="M144.1,326.5a72.71,72.71,0,0,1,11.1-16.87" transform="translate(-125.83 -128.3)"/><path class="cls-7" d="M216.62,223.42c-2.7,5.67,76.52,11.43,73.29-3.76" transform="translate(-125.83 -128.3)"/><path class="cls-14" d="M270.82,243.53s-7.54-24.1,1.84-24.74,8.12-2.84,8.44,22.08" transform="translate(-125.83 -128.3)"/><path class="cls-21" d="M146.91,332.38s54.78-118.84,140.42-71.27c0,0-2.79-6.28,3.63-6.81" transform="translate(-125.83 -128.3)"/><path class="cls-3" d="M206.72,256s18.37-12.69,37.78-11.64" transform="translate(-125.83 -128.3)"/><path class="cls-3" d="M268,248.23a47.58,47.58,0,0,1,10.72,4.8" transform="translate(-125.83 -128.3)"/><polyline class="cls-22" points="174.19 133.6 79.64 133.39 83.24 135.6 176.76 135.6 174.19 133.6"/><path class="cls-22" d="M209.08,268.12c1.85-2.63,0-4.22,0-4.22H302.6l4.83,4.22s-14.27,3.26-15.39,5.59h0" transform="translate(-125.83 -128.3)"/><circle class="cls-23" cx="93.63" cy="137.77" r="1.38"/><circle class="cls-23" cx="128.02" cy="137.77" r="1.38"/><circle class="cls-23" cx="166.97" cy="140" r="1.38"/><path class="cls-13" d="M309.1,269.73c.18-.44-16,3.19-17.16,8.37,3.2-7.31-82.05-8.86-83.93-8.21l1.22-1.76s79.19.71,83,5.59c1.78-3.23,15.18-5.59,15.18-5.59Z" transform="translate(-125.83 -128.3)"/><circle class="cls-17" cx="125.28" cy="209.21" r="46.41"/><circle class="cls-11" cx="124.55" cy="209.19" r="23.06"/><circle class="cls-17" cx="125.28" cy="208.69" r="29.99"/><circle class="cls-11" cx="125.28" cy="209.21" r="44.27"/><circle class="cls-17" cx="493.54" cy="209.37" r="46.41"/><circle class="cls-11" cx="493.54" cy="209.37" r="44.27"/><path class="cls-12" d="M301,365.4a56.67,56.67,0,0,1-106.67-25.62" transform="translate(-125.83 -128.3)"/><path class="cls-12" d="M204.7,362.22a54.39,54.39,0,0,1,15.13-68" transform="translate(-125.83 -128.3)"/><path class="cls-12" d="M181.87,332s.32,8.14,4.69,10.78,5.58,4.67,5.58,4.67l.66,4.2" transform="translate(-125.83 -128.3)"/><path class="cls-12" d="M182.27,334.73s4,4.58,7.83,5.77" transform="translate(-125.83 -128.3)"/><path class="cls-12" d="M182.11,342.32s1.14,12.22,5.51,14.86,5.58,4.67,5.58,4.67l.66,4.2" transform="translate(-125.83 -128.3)"/><path class="cls-12" d="M183.33,349.14s4,4.58,7.83,5.77" transform="translate(-125.83 -128.3)"/><path class="cls-12" d="M186.75,365.32s5.58,10.93,10.62,11.76,6.91,2.28,6.91,2.28l2.17,3.66" transform="translate(-125.83 -128.3)"/><path class="cls-12" d="M190.4,371.2s5.44,2.76,9.41,2.47" transform="translate(-125.83 -128.3)"/><path class="cls-12" d="M199.7,385.13s9.11,8.22,14.12,7.2,7.27-.34,7.27-.34l3.33,2.64" transform="translate(-125.83 -128.3)"/><path class="cls-12" d="M205.21,389.32s6.07.64,9.67-1.05" transform="translate(-125.83 -128.3)"/><path class="cls-12" d="M222.69,401.65s11.63,3.92,15.82,1,6.54-3.2,6.54-3.2l4.11,1.1" transform="translate(-125.83 -128.3)"/><path class="cls-12" d="M229.41,403.3s5.82-1.82,8.46-4.81" transform="translate(-125.83 -128.3)"/><path class="cls-12" d="M251.94,408.35s12.21-1.26,14.8-5.66,4.62-5.62,4.62-5.62l4.19-.7" transform="translate(-125.83 -128.3)"/><path class="cls-12" d="M258.74,407.07s4.54-4.07,5.7-7.88" transform="translate(-125.83 -128.3)"/><path class="cls-12" d="M278,402.55s11-5.48,11.86-10.51,2.34-6.89,2.34-6.89l3.68-2.14" transform="translate(-125.83 -128.3)"/><path class="cls-12" d="M283.88,399s2.82-5.41,2.56-9.38" transform="translate(-125.83 -128.3)"/><path class="cls-12" d="M298.5,389.28s8.34-9,7.4-14-.24-7.27-.24-7.27l2.69-3.29" transform="translate(-125.83 -128.3)"/><path class="cls-12" d="M302.77,383.83s.73-6.06-.91-9.68" transform="translate(-125.83 -128.3)"/><rect class="cls-24" x="64.32" y="132.88" width="3.97" height="12.8"/><polyline class="cls-3" points="106.63 169.06 117.06 179.85 117.06 165.91"/><line class="cls-3" x1="113.3" y1="181.2" x2="113.3" y2="166.45"/><line class="cls-3" x1="109.77" y1="167.75" x2="120.7" y2="178.68"/><polyline class="cls-3" points="126.64 165.11 130.51 179.02 137.17 167.05"/><line class="cls-3" x1="126.46" y1="178.57" x2="133.63" y2="165.69"/><line class="cls-3" x1="129.91" y1="165.1" x2="134.15" y2="179.97"/><path class="cls-24" d="M194.9,274.39c2.29,4.71,21.24-6.1,15.67-10.24-2.79-2.07-15.67-9.2-15.67-2.56Z" transform="translate(-125.83 -128.3)"/><path class="cls-3" d="M196.61,263.39s5.11-1.37,8.86,1" transform="translate(-125.83 -128.3)"/><path class="cls-3" d="M197.25,269.5a10.09,10.09,0,0,0,8.22-1.21" transform="translate(-125.83 -128.3)"/><polyline class="cls-3" points="145.79 170.25 143.1 184.44 154.38 176.65"/><line class="cls-3" x1="139.67" y1="182.24" x2="151.8" y2="173.86"/><line class="cls-3" x1="148.73" y1="171.69" x2="145.95" y2="186.9"/><polyline class="cls-3" points="91.41 181.06 105.53 186.12 99.36 173.63"/><line class="cls-3" x1="102.75" y1="189" x2="96.23" y2="175.78"/><line class="cls-3" x1="93.63" y1="178.5" x2="108.27" y2="183.47"/><polyline class="cls-3" points="83.2 196.7 98.17 195.69 87.52 186.7"/><line class="cls-3" x1="96.77" y1="199.43" x2="85.51" y2="189.93"/><line class="cls-3" x1="84.21" y1="193.46" x2="99.62" y2="192.15"/><polyline class="cls-3" points="81.78 216.49 95.02 209.44 81.62 205.6"/><line class="cls-3" x1="95.28" y1="213.42" x2="81.11" y2="209.36"/><line class="cls-3" x1="81.38" y1="213.11" x2="94.9" y2="205.62"/><polyline class="cls-3" points="88.01 233.11 97.77 221.72 83.2 223.1"/><line class="cls-3" x1="99.47" y1="225.34" x2="84.79" y2="226.72"/><line class="cls-3" x1="86.41" y1="230.12" x2="96.26" y2="218.21"/><polyline class="cls-3" points="100.56 245.56 104.93 231.21 92.13 238.31"/><line class="cls-3" x1="107.94" y1="233.84" x2="95.05" y2="240.99"/><line class="cls-3" x1="97.89" y1="243.46" x2="102.14" y2="228.59"/><polyline class="cls-3" points="119 252.58 116.63 237.77 108.25 249.77"/><line class="cls-3" x1="120.49" y1="238.81" x2="111.72" y2="251.36"/><line class="cls-3" x1="115.79" y1="252.46" x2="112.98" y2="236.64"/><polyline class="cls-3" points="138.7 251.36 129.72 238.55 127.43 253.01"/><line class="cls-3" x1="133.65" y1="237.81" x2="131.25" y2="252.93"/><line class="cls-3" x1="135.39" y1="252.13" x2="125.95" y2="239.14"/><polyline class="cls-3" points="155.31 241.5 141.52 234.12 146 248.06"/><line class="cls-3" x1="144.69" y1="231.68" x2="149.37" y2="246.26"/><line class="cls-3" x1="152.71" y1="243.68" x2="138.42" y2="236.35"/><polyline class="cls-3" points="166.12 225.78 150.48 225.13 160.58 235.73"/><line class="cls-3" x1="152.27" y1="221.56" x2="162.83" y2="232.65"/><line class="cls-3" x1="164.71" y1="228.88" x2="148.66" y2="228.49"/><circle class="cls-11" cx="492.82" cy="209.69" r="23.06"/><circle class="cls-17" cx="493.54" cy="209.19" r="29.99"/><polyline class="cls-3" points="475.38 169.11 485.62 180.07 485.86 166.14"/><line class="cls-3" x1="481.84" y1="181.36" x2="482.09" y2="166.62"/><line class="cls-3" x1="478.53" y1="167.85" x2="489.28" y2="178.96"/><polyline class="cls-3" points="495.5 165.4 499.41 179.3 506.05 167.31"/><line class="cls-3" x1="495.35" y1="178.86" x2="502.49" y2="165.96"/><line class="cls-3" x1="498.78" y1="165.38" x2="503.05" y2="180.24"/><polyline class="cls-3" points="513.83 170.34 511.76 184.63 522.69 176.36"/><line class="cls-3" x1="508.23" y1="182.59" x2="519.99" y2="173.69"/><line class="cls-3" x1="516.83" y1="171.65" x2="514.7" y2="186.96"/><polyline class="cls-3" points="456.98 184.39 471.44 188.38 464.36 176.38"/><line class="cls-3" x1="468.89" y1="191.46" x2="461.4" y2="178.76"/><line class="cls-3" x1="459.01" y1="181.67" x2="473.98" y2="185.53"/><polyline class="cls-3" points="449.38 206.24 463.96 202.74 451.96 195.66"/><line class="cls-3" x1="463.22" y1="206.67" x2="450.52" y2="199.18"/><line class="cls-3" x1="449.84" y1="202.88" x2="464.8" y2="199.01"/><polyline class="cls-3" points="454.37 230.42 465.17 220.01 450.53 220"/><line class="cls-3" x1="466.52" y1="223.77" x2="451.77" y2="223.76"/><line class="cls-3" x1="453.06" y1="227.29" x2="464" y2="216.37"/><polyline class="cls-3" points="471.16 247.69 474.8 233.13 462.38 240.88"/><line class="cls-3" x1="477.94" y1="235.61" x2="465.42" y2="243.41"/><line class="cls-3" x1="468.39" y1="245.72" x2="471.89" y2="230.67"/><polyline class="cls-3" points="494.82 253.22 490.08 238.99 483.76 252.19"/><line class="cls-3" x1="494.06" y1="239.4" x2="487.44" y2="253.2"/><line class="cls-3" x1="491.63" y1="253.63" x2="486.3" y2="238.47"/><polyline class="cls-3" points="520.22 244.97 507.83 235.41 509.95 249.9"/><line class="cls-3" x1="511.36" y1="233.53" x2="513.57" y2="248.68"/><line class="cls-3" x1="517.28" y1="246.69" x2="504.4" y2="237.1"/><polyline class="cls-3" points="535.47 223.42 519.83 223.63 530.49 233.66"/><line class="cls-3" x1="521.42" y1="219.97" x2="532.57" y2="230.46"/><line class="cls-3" x1="534.24" y1="226.59" x2="518.19" y2="227.08"/><path class="cls-4" d="M315.3,340.51c74.74,2.79,94.25-30,94.1-33.5l7-12.68c.79-8-7.69-5.23-7.69-5.23L404,301.87c-4.5-3.19-9.72,3.77-16.26,10.87S369.48,324.07,361.5,325s-7.84,4.16-7.84,4.16c-14.52,1.45-22.45-4.16-22.45-4.16-11.24-2.82-16.66,0-16.66,0S308.37,340.25,315.3,340.51Z" transform="translate(-125.83 -128.3)"/><path class="cls-25" d="M214,328.21s-1.1,10.18,5,12.29H315.3s-3.81-9.1-.75-15.51Z" transform="translate(-125.83 -128.3)"/><circle class="cls-16" cx="112.98" cy="195.18" r="1.48"/><circle class="cls-26" cx="112.98" cy="195.18" r="0.49"/><circle class="cls-16" cx="135.48" cy="194.69" r="1.48"/><circle class="cls-26" cx="135.48" cy="194.69" r="0.49"/><path class="cls-16" d="M248,318.91a38.22,38.22,0,0,1,7.42.27,1.88,1.88,0,0,1,1.42,1.61c0,.49,0,1.15-1.76,1.29,0,0-1.31.11-2.81.13s-3.09,0-5.82.06-3.27.05-3.66-.38a1.91,1.91,0,0,1-.37-1.16,1.46,1.46,0,0,1,1-1.39A22.64,22.64,0,0,1,248,318.91Z" transform="translate(-125.83 -128.3)"/><path class="cls-12" d="M267.34,386.8A54.18,54.18,0,0,1,228,383.29" transform="translate(-125.83 -128.3)"/><circle class="cls-16" cx="113.47" cy="226.03" r="1.48"/><circle class="cls-26" cx="113.47" cy="226.03" r="0.49"/><path class="cls-27" d="M456,176.94,437.57,191s2.44.26,4.34,5.85l18.94-14.63S459.77,178,456,176.94Z" transform="translate(-125.83 -128.3)"/><ellipse class="cls-27" cx="439.5" cy="194.05" rx="2.12" ry="3.69" transform="translate(-145.75 206.28) rotate(-40.83)"/><path class="cls-3" d="M457.45,173.71" transform="translate(-125.83 -128.3)"/><circle class="cls-15" cx="335.51" cy="68.08" r="2.3"/><path class="cls-6" d="M473.43,168.22s-4.13-12.06-11.1-17.26-8.17-11.05-8.17-11.05c-3.42-18.11-12-8.79-12-8.79-5.48,6.86-2.4,22.12,0,24,0,0,4.39,3.82,11.19-2.66,5.9-5.64,13.92,12.79,13.92,12.79S471,168.58,473.43,168.22Z" transform="translate(-125.83 -128.3)"/><path class="cls-1" d="M443,130.33" transform="translate(-125.83 -128.3)"/><path class="cls-3" d="M456,176.94l.29-1.53c1.69-1.48,8.09,3.89,6.52,6.4l-1.92.4" transform="translate(-125.83 -128.3)"/><path class="cls-28" d="M446.39,128.72s-6.73,11.28,0,27.45" transform="translate(-125.83 -128.3)"/><path class="cls-28" d="M439.34,145.38a5.2,5.2,0,0,1,4.51,0c2.13,1.21,6.67,1.91,9.6-.54" transform="translate(-125.83 -128.3)"/><path class="cls-28" d="M441.05,153.45a10.82,10.82,0,0,0,13-3.36" transform="translate(-125.83 -128.3)"/><path class="cls-7" d="M454.61,139.11c3.11.12,7,5.41,5.88,10.35" transform="translate(-125.83 -128.3)"/><path class="cls-7" d="M448.21,161.87s5.7,1,8.36-3.37,9.09,3.47,9.09,3.47" transform="translate(-125.83 -128.3)"/><ellipse class="cls-12" cx="479.02" cy="158.88" rx="7.99" ry="2.42" transform="translate(-147.3 95.47) rotate(-25.74)"/><line class="cls-3" x1="345.99" y1="34.05" x2="348.4" y2="39.95"/><path class="cls-12" d="M486.22,155.41s4.89,5.29,5.89,7.7" transform="translate(-125.83 -128.3)"/><path class="cls-1" d="M451.45,216.5l-1.32-1.58s3.73-5.44,12.88-6.58S489,194,489,194s12.82,8.84,15.19,22.45" transform="translate(-125.83 -128.3)"/><path class="cls-1" d="M465.41,207.82s3.69-8,20.63-15.64a7.92,7.92,0,0,1,1.95,2.66" transform="translate(-125.83 -128.3)"/><path class="cls-1" d="M489.9,198.67A36.18,36.18,0,0,1,499,211" transform="translate(-125.83 -128.3)"/><path class="cls-1" d="M540.49,206.84" transform="translate(-125.83 -128.3)"/><path class="cls-15" d="M540.91,209.1s11.59-7.67-2.75-20.84c-12.48-11.47-32.63-13.28-39.57-13.76s-6-1.22-6-1.22l-7.11-.32a24,24,0,0,0,11.67,4c6.93.47,27.72,1.63,39.57,13.76s3,16.65,3,16.65Z" transform="translate(-125.83 -128.3)"/><path class="cls-3" d="M509.95,178.65c2.54,1.24,5.59,10.36,5.59,12.73s-3.18,14.69,2.06,19.94h2.61s-3.61-5-2.22-13.62.21-12.58-5.27-18.58Z" transform="translate(-125.83 -128.3)"/><path class="cls-17" d="M620.25,409.72" transform="translate(-125.83 -128.3)"/><path class="cls-12" d="M627.88,409.09" transform="translate(-125.83 -128.3)"/><path class="cls-18" d="M671.36,279.33C667.41,269.15,553.86,196.27,527,346.5c0,0,31,7.75,37.82-8.15s13.56-59.74,66.45-55.21C631.27,283.14,664.88,284.51,671.36,279.33Z" transform="translate(-125.83 -128.3)"/><polyline class="cls-3" points="529.03 183.22 520.78 195.07 534.26 192.57"/><line class="cls-3" x1="518.55" y1="191.66" x2="533.04" y2="188.97"/><line class="cls-3" x1="531.12" y1="185.73" x2="522.37" y2="198.48"/><polyline class="cls-3" points="537.29 202.55 524.26 208.78 537.22 213.26"/><line class="cls-3" x1="524" y1="204.71" x2="537.93" y2="209.53"/><line class="cls-3" x1="537.87" y1="205.77" x2="523.97" y2="212.52"/><path class="cls-3" d="M537,347.53" transform="translate(-125.83 -128.3)"/><path class="cls-17" d="M537,347.53c6.59-41.84,38.78-119.31,124.06-65.23" transform="translate(-125.83 -128.3)"/><path class="cls-29" d="M544.48,305.65c3-14.83,43.09-77.34,119.16-27.45" transform="translate(-125.83 -128.3)"/><path class="cls-15" d="M465.91,325.52c6.25,9.35,3.51,19.19-8.17,21.08-10.39,1.69-53.11.89-53.11.89-23.61-.88-9.43-8.87-3.27-13l28.44-13.12s14.83,1.21,22.54-1c0,0,3.7,6.08,13.57,5.18" transform="translate(-125.83 -128.3)"/><circle class="cls-22" cx="294.81" cy="206.21" r="19.29"/><path class="cls-30" d="M404.63,331.19s2.61-10.74,15.2-13.11" transform="translate(-125.83 -128.3)"/><path class="cls-3" d="M432.27,323.58s6.66,7.92,2.81,17.63" transform="translate(-125.83 -128.3)"/><polygon class="cls-30" points="282.3 206.21 284.22 210.32 305.48 210.32 307.26 206.5 282.3 206.21"/><circle class="cls-31" cx="319.41" cy="195.29" r="1.05"/><circle class="cls-5" cx="328.57" cy="206.89" r="8.19"/><path class="cls-32" d="M451.06,339.22a5.1,5.1,0,0,1-2-3.71,4.6,4.6,0,0,1,3.86-5.21" transform="translate(-125.83 -128.3)"/><path class="cls-32" d="M454.72,340.63a5.1,5.1,0,0,0,3.91-1.58,4.6,4.6,0,0,0,.34-6.48" transform="translate(-125.83 -128.3)"/><circle class="cls-31" cx="341.46" cy="206.89" r="1.05"/><path class="cls-5" d="M397.44,336.61c-7.63-13.15,15.67-37,33.87-18.18" transform="translate(-125.83 -128.3)"/><path class="cls-3" d="M520.49,197.2s-.71,1.43.8,1.48" transform="translate(-125.83 -128.3)"/><path class="cls-3" d="M525,196.52c.89-1.22-.67-1.54-.67-1.54" transform="translate(-125.83 -128.3)"/><path class="cls-3" d="M520.21,200a4.84,4.84,0,0,0,2.39,4.29" transform="translate(-125.83 -128.3)"/><path class="cls-3" d="M356.29,335.18s-6.44-3.67.82-4.65,28.62-2.39,45.67-22.95" transform="translate(-125.83 -128.3)"/><path class="cls-3" d="M362.4,334.51s23.91-4.95,37.24-17.69" transform="translate(-125.83 -128.3)"/><path class="cls-3" d="M353.78,332.86s-14.47.26-18.22-2.32-16.51-1.16-18-1.16a14.07,14.07,0,0,1-4.16-1.17c-64.48,5.77-95.61,4.54-95.61,4.54" transform="translate(-125.83 -128.3)"/><path class="cls-3" d="M218.93,335.72s30.42,4,95,0c0,0,1-.23,4.6.88s35.17,0,35.17,0" transform="translate(-125.83 -128.3)"/><path class="cls-3" d="M467.29,305.65c-7.22-.12-13,3.16-8.16,8.4s16.72,4.75,19.69,1.16,5.59-9.6.68-9.56S467.29,305.65,467.29,305.65Z" transform="translate(-125.83 -128.3)"/><path class="cls-3" d="M338.59,178.24h2.35a1.19,1.19,0,0,1,1.19,1.19v7.44a1.19,1.19,0,0,1-1.19,1.19h0a3.54,3.54,0,0,1-3.54-3.54v-5.09A1.19,1.19,0,0,1,338.59,178.24Z"/><circle class="cls-3" cx="350.76" cy="185.28" r="1.64"/><path class="cls-29" d="M430.32,317.46c-1.4-7.26,10.22,0,22.58-3.88v-16.5l7.94,3.07s-1.45,4.27,3.38,5.67" transform="translate(-125.83 -128.3)"/><path class="cls-15" d="M497.85,170.29,464,167.41s-3.67,2.23,0,4.57l37.22,1.49" transform="translate(-125.83 -128.3)"/><path class="cls-27" d="M491.47,161.27s10.29.12,20,17.38a11.12,11.12,0,0,1,3.11,1.49c1.14.91,8,7.18,6.52,10.44l3.24,4.31-3.85,2.29-3.55-4.06c-3.5.79-8.21-7.23-8.87-8.54a5.75,5.75,0,0,1-.13-3.34c-16.85-19.47-19.34-17.56-19.34-17.56S488.55,159.84,491.47,161.27Z" transform="translate(-125.83 -128.3)"/><path class="cls-3" d="M485.48,310.68a12.17,12.17,0,0,1-3.25-2.61" transform="translate(-125.83 -128.3)"/><line class="cls-3" x1="340.63" y1="214.03" x2="347.31" y2="214.03"/><path class="cls-3" d="M448.76,347s1,3,6,4.68" transform="translate(-125.83 -128.3)"/><path class="cls-12" d="M688.13,346.43s-1.22,8.05-5.86,10.19-6.06,4-6.06,4l-1.12,4.1" transform="translate(-125.83 -128.3)"/><path class="cls-12" d="M687.44,349.1s-4.51,4.11-8.42,4.87" transform="translate(-125.83 -128.3)"/><path class="cls-12" d="M683.73,362.31s-4.68,11.34-9.63,12.59-6.7,2.83-6.7,2.83l-1.87,3.82" transform="translate(-125.83 -128.3)"/><path class="cls-12" d="M680.57,368.47s-5.2,3.2-9.18,3.22" transform="translate(-125.83 -128.3)"/><path class="cls-12" d="M672.08,383.12s-8.55,8.8-13.61,8.12-7.27.15-7.27.15l-3.15,2.86" transform="translate(-125.83 -128.3)"/><path class="cls-12" d="M666.87,387.67s-6,1-9.72-.41" transform="translate(-125.83 -128.3)"/><path class="cls-12" d="M651.62,398.7s-11.13,5.18-15.61,2.73-6.85-2.46-6.85-2.46l-4,1.55" transform="translate(-125.83 -128.3)"/><path class="cls-12" d="M645.13,401.09s-6-1.17-8.93-3.84" transform="translate(-125.83 -128.3)"/><path class="cls-12" d="M624.17,406.67s-12.27.33-15.41-3.69-5.31-5-5.31-5l-4.25-.15" transform="translate(-125.83 -128.3)"/><path class="cls-12" d="M617.26,406.28s-5-3.45-6.67-7.08" transform="translate(-125.83 -128.3)"/><path class="cls-12" d="M597.56,402.93s-11.51-4.24-12.94-9.15-3.08-6.59-3.08-6.59l-3.89-1.72" transform="translate(-125.83 -128.3)"/><path class="cls-12" d="M591.29,400s-3.39-5.07-3.57-9" transform="translate(-125.83 -128.3)"/><path class="cls-12" d="M575.11,390.21s-9.35-7.95-9-13-.62-7.25-.62-7.25l-3.06-3" transform="translate(-125.83 -128.3)"/><path class="cls-12" d="M570.23,385.3s-1.44-5.93-.23-9.72" transform="translate(-125.83 -128.3)"/><path class="cls-12" d="M558.65,371.48s-5.33-11.05-3-15.57,2.36-6.88,2.36-6.88l-1.23-3" transform="translate(-125.83 -128.3)"/><path class="cls-12" d="M556.17,365s1.08-6,3.72-9" transform="translate(-125.83 -128.3)"/><path class="cls-12" d="M673.63,294.21s4.71,6.41,3,11.24-1.28,7.16-1.28,7.16l2.18,3.65" transform="translate(-125.83 -128.3)"/><path class="cls-12" d="M674.82,296.52s-.16,6.1-2.3,9.45" transform="translate(-125.83 -128.3)"/><path class="cls-12" d="M687.6,326.18s1,8.13-3,11.35-4.87,5.4-4.87,5.4l-.07,4.25" transform="translate(-125.83 -128.3)"/><path class="cls-12" d="M687.78,329s-3.35,5.1-6.95,6.81" transform="translate(-125.83 -128.3)"/><path class="cls-12" d="M660.7,281.93s5.9,5.33,5.24,10.4.18,7.27.18,7.27l2.87,3.13" transform="translate(-125.83 -128.3)"/><path class="cls-12" d="M662.33,284s1.07,6-.36,9.72" transform="translate(-125.83 -128.3)"/><path class="cls-12" d="M682.74,309.23s3.1,7.58.13,11.73-3.28,6.5-3.28,6.5l1.05,4.12" transform="translate(-125.83 -128.3)"/><path class="cls-12" d="M683.64,311.87s-1.89,5.8-4.91,8.4" transform="translate(-125.83 -128.3)"/><path class="cls-12" d="M671.21,358.47a61.12,61.12,0,0,1-28.92,28.69" transform="translate(-125.83 -128.3)"/><path class="cls-12" d="M642.24,287.36A54.39,54.39,0,0,1,673,349.87" transform="translate(-125.83 -128.3)"/><path class="cls-12" d="M589.49,381.65A61.12,61.12,0,0,1,566,348.38" transform="translate(-125.83 -128.3)"/><circle class="cls-11" cx="492.82" cy="209.53" r="10.64"/><path class="cls-12" d="M615,393.15a54.39,54.39,0,0,1-53.64-44.47" transform="translate(-125.83 -128.3)"/></g><g id="Laag_13" data-name="Laag 13"><path class="cls-24" d="M571.47,277.51s35.85,52.5,47.37,68l8.37-5.36L582,271.63" transform="translate(-125.83 -128.3)"/><path class="cls-24" d="M523.36,206.62s39.9,60.32,46.28,69.27c2.82,4,13.84-3.3,12.63-5.79-4.53-9.34-32.62-54.87-49.53-69.27" transform="translate(-125.83 -128.3)"/><path class="cls-29" d="M532.94,205.52S546.32,222.72,555,236" transform="translate(-125.83 -128.3)"/><path class="cls-29" d="M567.3,252.54s9.76,15.37,10.31,20.8" transform="translate(-125.83 -128.3)"/><line class="cls-29" x1="401.16" y1="79.57" x2="438.94" y2="135.45"/><circle class="cls-16" cx="492.67" cy="207.9" r="1.48"/><circle class="cls-26" cx="492.67" cy="207.9" r="0.49"/><path class="cls-12" d="M528.13,193.47a14,14,0,0,1,4.64,7.19c-5.95,5.25-9.41,6.19-9.41,6.19a10.32,10.32,0,0,1-4.87-7.27" transform="translate(-125.83 -128.3)"/><path class="cls-33" d="M574,301.79s1.39,7.2,5.22,4.61,9.84-5.45,1.11-10.94" transform="translate(-125.83 -128.3)"/><path class="cls-34" d="M580.29,295.46c2.47,2.1-2.61,9-6.33,6.33" transform="translate(-125.83 -128.3)"/><path class="cls-31" d="M575.06,330.09s-4.49-5.21,3.69-11.14,4.9-15.83,4.9-15.83l-4.46,3.29a18.17,18.17,0,0,1-4.13,12c-4.73,6.09-5.77,7,0,15.31,0,0-2.18,11,2.4,10.67,0,0,2.25.48,2.81-1s2-2.24,2.16.4-.32,3.85,4.41,3.53,9.62-2.53,9.14-11-.24-15.49-4.25-16.45v-4h-6.09v3.77s-5.77-.88-7.78,9.14c0,0-.38-4.93-3.26-5.24A6.11,6.11,0,0,0,575.06,330.09Z" transform="translate(-125.83 -128.3)"/><path class="cls-10" d="M585.62,325.2s-4.78,7.11-1.07,16.9" transform="translate(-125.83 -128.3)"/><path class="cls-35" d="M588.7,315.74c1.8-3,3.15-1.14,4,0s5.26,10.82,6.73,14.5a67.76,67.76,0,0,0,4.09,8,2.08,2.08,0,0,0,1.28-2.93c-1.73-1.35-3.27-4.66-3.27-4.66-10-28.3-14.21-14.91-14.21-14.91Z" transform="translate(-125.83 -128.3)"/><circle class="cls-16" cx="493.54" cy="189.87" r="1.48"/><circle class="cls-26" cx="493.54" cy="189.87" r="0.49"/><circle class="cls-16" cx="511.76" cy="202.55" r="1.48"/><circle class="cls-26" cx="511.76" cy="202.55" r="0.49"/><circle class="cls-16" cx="509.32" cy="221.52" r="1.48"/><circle class="cls-26" cx="509.32" cy="221.52" r="0.49"/><circle class="cls-16" cx="490.45" cy="229.63" r="1.48"/><circle class="cls-26" cx="490.45" cy="229.63" r="0.49"/><circle class="cls-16" cx="473.57" cy="216.07" r="1.48"/><circle class="cls-26" cx="473.57" cy="216.07" r="0.49"/></g><g id="Laag_3" data-name="Laag 3"><path class="cls-9" d="M265.79,346.66a62.64,62.64,0,0,0-8.21-6.16l-14,.31s3.19,20.56,8.47,18.06l13-6.18S270.21,350.55,265.79,346.66ZM261,350.24a24.3,24.3,0,0,1-6.87,4.54c-4.51,2.08-6.38-10.48-6.38-10.48a68.64,68.64,0,0,1,11.1,2.15C263.87,348,261,350.24,261,350.24Z" transform="translate(-125.83 -128.3)"/><circle class="cls-9" cx="126.5" cy="233.59" r="2.18"/><circle class="cls-9" cx="142.08" cy="225.29" r="2.12"/><path class="cls-36" d="M267.91,355.7c3.23,6.26,1,7.37,1,7.37s-6.48,3.65-9.81,5-4.62-6.17-4.62-6.17a2.31,2.31,0,0,1-1.75,2.18s1.65,9.61,6,7.88,12.68-6.44,12.68-6.44c3.21-2.33,4.94-4.28-1.8-10.51a2.69,2.69,0,0,1-1.69.71" transform="translate(-125.83 -128.3)"/></g><g id="Laag_11" data-name="Laag 11"><ellipse class="cls-9" cx="577.13" cy="298.63" rx="4.48" ry="2.92" transform="translate(-167.96 367.26) rotate(-45)"/><path class="cls-9" d="M525.55,267.69s-8.69-5,3.66-8.78,12.72,5.46,12.27,8.08S579,297.93,579,297.93a3.27,3.27,0,0,1-2.36,2.36S538.77,268,535.15,270.65s-9.6-3-9.6-3c3.88-20.33-1.29-23.52-1.29-23.52" transform="translate(-125.83 -128.3)"/><path class="cls-14" d="M311.86,361.09s-.46,5.54,8.31,7.16,47.15,4.16,49.32,7.16,20.31,3.46,23,.92,2.45-3,13.09-3,85.45,7.85,93.42-9.47S534.49,261.33,529.87,250c-1.91-2.83-1.47-6.05-.93-8.29s-1.79-9.85-7.44-2.78-7.7,16.93-7.7,16.93,3,6.81-6.58,37.37-17.37,52.85-17.37,52.85S457.52,363,311.86,361.09Z" transform="translate(-125.83 -128.3)"/><path class="cls-3" d="M519.34,250.34c1.6.33,2.56,8.49-6.47,37.4" transform="translate(-125.83 -128.3)"/><path class="cls-3" d="M381,360.46c.65,12,1.46,10.4,13.31,10.6s97,4,103.64-10.6,5.68-14.6,5.68-14.6" transform="translate(-125.83 -128.3)"/><path class="cls-3" d="M397.54,359.74s-12.09,7.35,5.24,7.53,69.62,0,69.62,0" transform="translate(-125.83 -128.3)"/><path class="cls-9" d="M472.16,358.73s.07-.43.23-1.11v-2.93Z" transform="translate(-125.83 -128.3)"/><path class="cls-9" d="M489.92,369.35l-.2-12.13s-1.32-7.61-8.34-9.54c-5.75-1.58-8.27,6.83-9,9.93v11.66c-6.87,2.38-.27,10.46,4.11,3.64s9.56,1.32,9.56,1.32C489.14,378,495.51,372.14,489.92,369.35Zm-17.54,4.94a1.52,1.52,0,1,1,1.52-1.52A1.52,1.52,0,0,1,472.39,374.29Zm16.25,0a1.52,1.52,0,1,1,1.52-1.52A1.52,1.52,0,0,1,488.64,374.29Z" transform="translate(-125.83 -128.3)"/><path class="cls-9" d="M481,350h-5.45a1.62,1.62,0,0,0-1.62,1.62v6.9a1.62,1.62,0,0,0,1.62,1.62H484a1.62,1.62,0,0,0,1.62-1.62v-3.87A4.67,4.67,0,0,0,481,350Zm2.71,5.53a1.62,1.62,0,0,1-1.62,1.62h-5.16a1.62,1.62,0,0,1-1.62-1.62v-1.44a1.62,1.62,0,0,1,1.62-1.62h5.16a1.62,1.62,0,0,1,1.62,1.62Z" transform="translate(-125.83 -128.3)"/><path class="cls-9" d="M486.41,343.63c2.08,5.88,18.46-4.61,18.92-8.88s-2.08-2-2.77-1.27-4.15-.46-1.61-2.54,6.11-4.73,7-3.35.12,1.85-.81,2.65-1,1.15-.23,2,7.5,3.46-1.73,10.5-12.68,13.21-16.84,10.84C480,348.78,482.74,341.42,486.41,343.63Z" transform="translate(-125.83 -128.3)"/><path class="cls-7" d="M481.09,260.63s26.84,7.74,24.63,14.67-.7,13.68-10,10.07-17.53-6.62-17.53-6.62l-12.64-4.62-1.37-16.37,16.86,2.87" transform="translate(-125.83 -128.3)"/><path class="cls-3" d="M529.64,261.89a9.23,9.23,0,0,0,2.35-1c.45-.43,3.75-3,6.74,2s-6.66-.09-7.71,0-1.78,1-.37,1.52,5.61.75,5.61,2.69-4.3,3.1-7.19,0" transform="translate(-125.83 -128.3)"/></g><g id="Laag_5" data-name="Laag 5"><path class="cls-4" d="M352,346.5s-76.74,1.08-77.48,3.16-.91,10,1.36,10.32,25.08.57,25.08.57L448.15,364s15.93.71,24-5.3,26.92-21.55,23.1-65.48c0,0-7-3.47-9.65,3.3,0,0,3.4,24.68-10.83,44.13,0,0-13.14,16-44.29,12.75S352,346.5,352,346.5Z" transform="translate(-125.83 -128.3)"/><path class="cls-3" d="M280.73,354.18s44.43-4.62,62-2" transform="translate(-125.83 -128.3)"/><path class="cls-9" d="M437.86,359.14a119.57,119.57,0,0,0,24.29-2" transform="translate(-125.83 -128.3)"/><path class="cls-4" d="M428.77,352.79s-29,.5-43.85-7c0,0-1.83-1.6-9.82-1.42s-18.31,0-18.31,0-6.4-.58-5,7c0,0-.36,4.56,8.89,4.92s30-1.78,32.88,0,13.51,5.15,25.24,4.09S428.24,360.1,428.77,352.79Z" transform="translate(-125.83 -128.3)"/><path class="cls-9" d="M356.47,348.42c21.66-4,28.23-.89,40,4.37s25.82,4.39,25.82,4.39" transform="translate(-125.83 -128.3)"/><path class="cls-3" d="M491.47,299.84s.19,32.55-12,42.49" transform="translate(-125.83 -128.3)"/></g><g id="Laag_6" data-name="Laag 6"><path class="cls-6" d="M285,324.69c-3.37,2.15-11.47-1.29-9.41-7.7l14.27-19.69a15,15,0,0,0,10.76,8.44Z" transform="translate(-125.83 -128.3)"/><path class="cls-24" d="M315.37,285.77a106.61,106.61,0,0,1-15.65,21A11.94,11.94,0,0,1,289,298.31s10.1-14.36,16.42-19.32Z" transform="translate(-125.83 -128.3)"/><ellipse class="cls-24" cx="310.7" cy="282.06" rx="3.12" ry="6.14" transform="translate(-214.75 281.81) rotate(-60)"/><path class="cls-5" d="M314.42,283.78c-.51.88-2.72.78-4.47-.23s-3-2.86-2.5-3.74,2.6-.47,4.35.54S314.93,282.9,314.42,283.78Z" transform="translate(-125.83 -128.3)"/><path class="cls-24" d="M313,272.79l-5,7.31a10.55,10.55,0,0,0,6,3.68l3.66-6.16Z" transform="translate(-125.83 -128.3)"/><path class="cls-3" d="M292.29,299.89a44.87,44.87,0,0,1,11.83-14.12" transform="translate(-125.83 -128.3)"/><path class="cls-3" d="M303.08,294.91a37,37,0,0,1-4.88,7.89" transform="translate(-125.83 -128.3)"/><line class="cls-3" x1="157.53" y1="183.71" x2="163.13" y2="176.16"/><line class="cls-3" x1="163.13" y1="184.88" x2="167.7" y2="178.45"/><path class="cls-29" d="M279.72,311.07a14.94,14.94,0,0,0,9.25,8.74" transform="translate(-125.83 -128.3)"/><path class="cls-29" d="M277.24,314.5s1,6.25,9.46,8.07" transform="translate(-125.83 -128.3)"/></g><g id="Laag_12" data-name="Laag 12"><path class="cls-5" d="M386.15,270s.08-4,12.77-10.75" transform="translate(-125.83 -128.3)"/><path class="cls-5" d="M395.19,280.32s2.9-13.1,30.89-21.1" transform="translate(-125.83 -128.3)"/><rect class="cls-15" x="427.68" y="262.32" width="18.53" height="9.47" rx="2.16" ry="2.16" transform="translate(353.94 -371.55) rotate(63.36)"/><path class="cls-5" d="M411.16,270.31s10.69-7,18.38-7.48" transform="translate(-125.83 -128.3)"/><line class="cls-3" x1="292.22" y1="151.42" x2="295.8" y2="150.29"/></g><g id="Laag_7" data-name="Laag 7"><path class="cls-1" d="M480.76,304.21s.19,1.73-2.62.45c-1.39-.7-15.19-9.32-18.39-15.8" transform="translate(-125.83 -128.3)"/><path class="cls-1" d="M478.23,304.73s.19,1.73-2.62.45c-1.39-.7-15.19-9.32-18.39-15.8" transform="translate(-125.83 -128.3)"/><path class="cls-1" d="M474.73,304.73s.19,1.73-2.62.45c-1.39-.7-15.19-9.32-18.39-15.8" transform="translate(-125.83 -128.3)"/><path class="cls-1" d="M470.66,304.58s.19,1.73-2.62.45c-1.39-.7-15.19-9.32-18.39-15.8" transform="translate(-125.83 -128.3)"/><path class="cls-1" d="M467.51,304.72s.65,1.59-2.16.31c-.46-.24-2.31-1.35-4.68-3" transform="translate(-125.83 -128.3)"/><path class="cls-1" d="M483.4,303.73s.19,1.73-2.62.45c-1.39-.7-15.19-9.32-18.39-15.8" transform="translate(-125.83 -128.3)"/><path class="cls-1" d="M485.76,302.22s0,2.61-2.82,1.33c-1.39-.7-15.19-9.32-18.39-15.8" transform="translate(-125.83 -128.3)"/><path class="cls-1" d="M486.06,300s0,2.61-2.82,1.33c-1.39-.7-15.19-9.32-18.39-15.8" transform="translate(-125.83 -128.3)"/><path class="cls-1" d="M489.3,292.68a19.37,19.37,0,0,1-6-3.08" transform="translate(-125.83 -128.3)"/><path class="cls-1" d="M487.07,294.14a15.27,15.27,0,0,1-4.84-2.58" transform="translate(-125.83 -128.3)"/><path class="cls-1" d="M498.73,286.72s.36,2.58-2.6,1.72c-1.09,0-14.57-5.65-19.12-11.45" transform="translate(-125.83 -128.3)"/><path class="cls-1" d="M497.38,288.77s.36,2.58-2.6,1.72c-1.31-.13-15.66-6.6-20.05-12.3" transform="translate(-125.83 -128.3)"/><path class="cls-1" d="M495.91,290.66s.36,2.58-2.6,1.72c-1.36.05-16.37-7-20.46-13" transform="translate(-125.83 -128.3)"/><path class="cls-2" d="M438,221.49s-85.16,36.3-32.67,36.85,101.35,10.89,103-14.24S508.93,193.29,438,221.49Z" transform="translate(-125.83 -128.3)"/><path class="cls-37" d="M443.38,228.91s-65.21,25.24-24.26,23.3,79.38,2.09,79.86-12.91S497.75,209.1,443.38,228.91Z" transform="translate(-125.83 -128.3)"/><path class="cls-1" d="M398.92,252.32s-7.73-1.34,12-13" transform="translate(-125.83 -128.3)"/><path class="cls-1" d="M467.24,216.5s16.35-3.94,24.22-1.18" transform="translate(-125.83 -128.3)"/><path class="cls-1" d="M486.94,255.45s21.66-1.43,17.13-22.56" transform="translate(-125.83 -128.3)"/><path class="cls-1" d="M444.34,239.31s-3.88-.42-4.09-2,1.48-1.41,1.48-1.41,2.43,1.31,13.5-.59,34.18-9.89,29.64.59a4.87,4.87,0,0,1-3.52,2c-2.37.2-4.55,3-4.55,3Z" transform="translate(-125.83 -128.3)"/><path class="cls-1" d="M469.42,235.74s6.42-3.26,10.93-1.56" transform="translate(-125.83 -128.3)"/><path class="cls-1" d="M386.15,270s2.4-6.59,14.51-10.94" transform="translate(-125.83 -128.3)"/><path class="cls-1" d="M395.2,281.59s.68-12.39,28.25-21.88" transform="translate(-125.83 -128.3)"/><path class="cls-1" d="M407.83,268.93h3.43a2.85,2.85,0,0,1,2.85,2.85v13.94a2.85,2.85,0,0,1-2.85,2.85h-3.72a4,4,0,0,1-4-4V273.26a4.33,4.33,0,0,1,4.33-4.33Z" transform="translate(-199.86 42.29) rotate(-21.66)"/><path class="cls-1" d="M407.56,278.59c.59,2.16,1,4.19,4.72,3.71" transform="translate(-125.83 -128.3)"/><path class="cls-1" d="M395.16,284.15c4.6-7.49,7.65.82,8.46,2.69s2,3.8,5,2.25" transform="translate(-125.83 -128.3)"/><path class="cls-1" d="M395,297.73s3,7.47,12.84-6.1" transform="translate(-125.83 -128.3)"/><path class="cls-1" d="M414.87,289.31s4.79-.39,13.84-6.63" transform="translate(-125.83 -128.3)"/><path class="cls-1" d="M415.9,290.87s5.15-.26,14.26-6.93" transform="translate(-125.83 -128.3)"/><path class="cls-1" d="M416.41,293.25" transform="translate(-125.83 -128.3)"/><path class="cls-1" d="M416.41,292.54c-.09.26,6.64-.6,15.55-7.74" transform="translate(-125.83 -128.3)"/><path class="cls-1" d="M433.62,285.88c-7,6.89-16.4,8.93-17.26,8.43" transform="translate(-125.83 -128.3)"/><path class="cls-1" d="M416.18,294.33s-.42,2.57,2.56,1.78c0,0,11-3.06,16.36-8.71" transform="translate(-125.83 -128.3)"/><path class="cls-1" d="M406.55,314.29s1.7-5.06,4.09-6.79,3.79-6.14,3.79-6.14a8.62,8.62,0,0,1,2.87-5s-.42,2.57,2.56,1.78c0,0,11.62-3.67,17-9.32" transform="translate(-125.83 -128.3)"/><path class="cls-1" d="M418.56,298.51s-.42,2.57,2.56,1.78c0,0,13.09-4.93,18.43-10.57" transform="translate(-125.83 -128.3)"/><path class="cls-1" d="M420,300.59s-.36,2.58,2.6,1.72c0,0,13.92-5.67,19.12-11.45" transform="translate(-125.83 -128.3)"/><path class="cls-1" d="M421.34,302.65s-.36,2.58,2.6,1.72c0,0,14.86-6.52,20.05-12.3" transform="translate(-125.83 -128.3)"/><path class="cls-1" d="M422.81,304.53s-.36,2.58,2.6,1.72c0,0,15.63-7.07,20.46-13" transform="translate(-125.83 -128.3)"/><path class="cls-1" d="M424.34,306.55s-.36,2.58,2.6,1.72c0,0,16.12-7.59,20.92-13.88" transform="translate(-125.83 -128.3)"/><path class="cls-1" d="M426.26,308.59s-.25,2.6,2.67,1.61c0,0,16.95-8.23,21.31-15.12" transform="translate(-125.83 -128.3)"/><path class="cls-1" d="M428,310.46s-.25,2.6,2.67,1.61c0,0,19.14-9.31,21.71-16" transform="translate(-125.83 -128.3)"/><path class="cls-1" d="M429.72,312.57s-.25,2.32,2.53,1.43c0,0,18.2-8.39,20.66-14.38" transform="translate(-125.83 -128.3)"/><path class="cls-1" d="M432.8,313.84c2.26,1,4,.36,7.67-1.65s10.34-6.16,12.25-8.69" transform="translate(-125.83 -128.3)"/><path class="cls-1" d="M436.82,314c2.44,1.26,11.86-3.93,16.09-8" transform="translate(-125.83 -128.3)"/><path class="cls-1" d="M440.5,313.88c1.44.78,8.61-1.09,12.41-5.44" transform="translate(-125.83 -128.3)"/><path class="cls-1" d="M444.62,313.88c2,1.49,8.29-2.86,8.29-2.86" transform="translate(-125.83 -128.3)"/><path class="cls-6" d="M426.25,281.08c17.51,11.36,41.75,28.68,52.63,15.6s6.9-26.95-6.62-32.09C449.47,255.93,418.05,275.76,426.25,281.08Z" transform="translate(-125.83 -128.3)"/><rect class="cls-15" x="339.76" y="169.7" width="3.82" height="5.51" rx="1.91" ry="1.91"/><rect class="cls-15" x="482.39" y="277.62" width="3.82" height="5.51" rx="1.91" ry="1.91" transform="translate(57.95 624.15) rotate(-87.59)"/><rect class="cls-15" x="463.55" y="261.48" width="3.82" height="5.51" rx="1.91" ry="1.91" transform="translate(-138.97 -103.69) rotate(-2.99)"/><rect class="cls-15" x="434.91" y="266.7" width="3.82" height="5.51" rx="1.91" ry="1.91" transform="translate(-193.42 235.99) rotate(-42.32)"/><path class="cls-1" d="M427,279.55s1.59-3.82,6.92-6.6" transform="translate(-125.83 -128.3)"/><path class="cls-1" d="M442.2,268.19A48.27,48.27,0,0,1,458,264.92" transform="translate(-125.83 -128.3)"/><path class="cls-1" d="M434,282.37s24.51,18.44,43.12,8.16" transform="translate(-125.83 -128.3)"/><path class="cls-1" d="M434,276.24s21.56-10.73,44.19-4.84C478.15,271.41,462.08,269.17,434,276.24Z" transform="translate(-125.83 -128.3)"/><path class="cls-37" d="M504.21,216.5s12.69-9.26,20-3.34-16.64,10.78-16.64,10.78,6.4,0,5.25,16.25-14.44,22.86-21.4,19.15c0,0-1,3.77,2.15,4.42s4.2-5.68,9-.81,10,8,7.45,16.61-3.7,22.8-14.44,18.76" transform="translate(-125.83 -128.3)"/><path class="cls-37" d="M529,240.18s5.48-8.4-3.33-24.41" transform="translate(-125.83 -128.3)"/><path class="cls-1" d="M508.74,219.46a63,63,0,0,1,11.47-3" transform="translate(-125.83 -128.3)"/><path class="cls-37" d="M514.47,200.16s-5.69,3-1.71,6.59" transform="translate(-125.83 -128.3)"/><path class="cls-37" d="M514.8,205.58l-4.75,3s1.25-.4,3.33,3.37l-1.94.66a10.55,10.55,0,0,0-1.39-4" transform="translate(-125.83 -128.3)"/><path class="cls-1" d="M530.33,252.32s3.1,3.35,18.72-7" transform="translate(-125.83 -128.3)"/><line class="cls-37" x1="398.43" y1="84.86" x2="400.64" y2="83.03"/><path class="cls-1" d="M420.35,302s-3.79,1.7-5.92-.67" transform="translate(-125.83 -128.3)"/><path class="cls-1" d="M414.42,307.5a8.73,8.73,0,0,0,1.93-2.82" transform="translate(-125.83 -128.3)"/><path class="cls-28" d="M415.39,310.06a25.21,25.21,0,0,1,6.93-2" transform="translate(-125.83 -128.3)"/><path class="cls-37" d="M495.76,310.06s2.3,3.72,8.54-7.57" transform="translate(-125.83 -128.3)"/><polyline class="cls-13" points="358.84 149.16 358.06 146.8 376.76 134.64 378.47 136.63 358.84 149.16"/><path class="cls-1" d="M486.12,295.84a10,10,0,0,1-4.84-2.58" transform="translate(-125.83 -128.3)"/><path class="cls-1" d="M485.76,298a17.46,17.46,0,0,1-5.52-3" transform="translate(-125.83 -128.3)"/><path class="cls-1" d="M485.76,300.19a19.42,19.42,0,0,1-6.89-3.71" transform="translate(-125.83 -128.3)"/></g><g id="Laag_9" data-name="Laag 9"><path class="cls-15" d="M315.71,290.05l12,22.19a4.13,4.13,0,0,0,4.81-2.17l-12-21.86L315.89,290" transform="translate(-125.83 -128.3)"/><ellipse class="cls-15" cx="318.11" cy="289.13" rx="2.58" ry="1.52" transform="translate(-208.05 4.23) rotate(-20.9)"/><polygon class="cls-38" points="193.08 160.69 192.06 161.06 189.44 154.19 190.11 152.91 193.08 160.69"/></g></svg>