<svg id="Laag_1" data-name="Laag 1" xmlns="http://www.w3.org/2000/svg" viewBox="0 0 333.95 333.09"><defs><style>.cls-1,.cls-2,.cls-3{fill:#fff;}.cls-2,.cls-3{stroke:#caba92;stroke-width:5.41px;}.cls-2{stroke-miterlimit:10;}.cls-3{stroke-linecap:round;stroke-linejoin:round;}.cls-4{font-size:67.49px;fill:#898064;font-family:ArialRoundedMTBold, Arial Rounded MT Bold;}</style></defs><title>olifant</title><rect class="cls-1" x="27.91" y="48.2" width="281.25" height="281.25"/><path class="cls-2" d="M146.83,194.5l-9.54,29.75a2.2,2.2,0,0,1-.11.29l-5.43,11.24a2.13,2.13,0,0,1-.35.51,7.07,7.07,0,0,0-1.15,1.68,2.2,2.2,0,0,0,2,3.1H137a2.2,2.2,0,0,0,2-1.2c4.28-8.4,29.29-58.66,26-80.36-3.1-20.42-28.77-6.52-35.86-2.25a2.2,2.2,0,0,0-.78,3l18.32,32.52A2.2,2.2,0,0,1,146.83,194.5Z" transform="translate(26.91 47.21)"/><path class="cls-2" d="M81.89,225.09l-5.17,12a4.43,4.43,0,0,0-.41.88,2.88,2.88,0,0,0,2.75,3.8h3.58s20.89-32.77,24.87-43.47,3-47.82,3-47.82L87,159.41l5.07,34.91Z" transform="translate(26.91 47.21)"/><path class="cls-2" d="M113.76,204.06a11.42,11.42,0,0,1-5.51,7.65c-4.84,2.83-11.62,15.41-11.62,15.41L82.89,199.81l13.54-14.64Z" transform="translate(26.91 47.21)"/><path class="cls-2" d="M75.44,178.12s.68,3.17,2.5,10.92c1.88,8,4.09,16.93,5.26,19.78,2.29,5.55,4.18,19.74,2.44,30.08a.38.38,0,0,1-.26.3c-.71.22-2.84,1.17-2.61,4.49a.38.38,0,0,0,.38.35h16.94a.37.37,0,0,0,.38-.36,6.24,6.24,0,0,0-1.23-4.31.33.33,0,0,1-.09-.19c-.23-1.7-3.1-23.5-3.6-30.58a.34.34,0,0,1,0-.2,25.33,25.33,0,0,0,3.07-11.3.37.37,0,0,1,.64-.25c2.59,2.62,13.25,11.37,35.68,5.27a.37.37,0,0,1,.36.1,17,17,0,0,1,4.51,9.92c.6,6,2.51,24.79,2.74,27.05a.36.36,0,0,1-.15.34,4.11,4.11,0,0,0-1.69,4.19.38.38,0,0,0,.37.31h16.45a.37.37,0,0,0,.37-.4c-.09-1.09-.54-4.07-2.81-4.7a.18.18,0,0,1-.14-.16l-3.35-42.45a.44.44,0,0,1,0-.15A32.93,32.93,0,0,0,148,172.84l-.05-.07-31.82-34.39a.37.37,0,0,0-.26-.12c-2.27-.06-28.87-.07-43,30a.34.34,0,0,1-.1.12c-.73.59-7.74,6.71-3.65,22.39a.38.38,0,0,0,.47.27l7.43-2.19" transform="translate(26.91 47.21)"/><path class="cls-2" d="M98.67,196.16S96,183.63,94,180" transform="translate(26.91 47.21)"/><path class="cls-2" d="M135.19,202.08a50.77,50.77,0,0,1-7.69-19.21" transform="translate(26.91 47.21)"/><path class="cls-2" d="M176.5,161.17a53.83,53.83,0,0,0,3.39-5.92s.27,14.13,2.17,19c.63.66,24.08-1,25.28-36.28,0,0-12.91-16.81-32.26-8.54-13-6.2-20.88.42-20.88.42s-16.46-13.29-36.7,8.29c0,0,3.29,28.41,28.77,35.72,0,0,2.19-10.48.61-18.29,0,0,1.62,2.66,3.39,5.15,1.49,2.09,4.61,6.83,6.72,8.29l6.52,5.34,7-5C172.14,168.17,175.36,162.87,176.5,161.17Z" transform="translate(26.91 47.21)"/><path class="cls-3" d="M172.39,147.12c-4.05,0-4,5.08-4,5.08l-1.55,62.28a3.79,3.79,0,0,1-.05.38,36.21,36.21,0,0,1-.58,4.21c-.69,2.86-2.08,3.81-5.92,5.31l-2-7h0a14.12,14.12,0,0,0,1.7-7.55l-.16-57.67s.05-5.08-4-5.08" transform="translate(26.91 47.21)"/><line class="cls-2" x1="173.79" y1="202.81" x2="167.2" y2="182.03"/><line class="cls-2" x1="206.8" y1="202.46" x2="209.73" y2="182.03"/><path class="cls-2" d="M172.74,166.79s0,5.89,1.64,8" transform="translate(26.91 47.21)"/><path class="cls-2" d="M155.5,166.79s0,5.56-2.69,7.58" transform="translate(26.91 47.21)"/><text class="cls-4" transform="translate(68.73 197.01) rotate(-62.07)">E</text><text class="cls-4" transform="translate(89.54 160.83) rotate(-45.83)">l</text><text class="cls-4" transform="translate(99.18 148.37) rotate(-31.02)">e</text><text class="cls-4" transform="matrix(0.98, -0.18, 0.18, 0.98, 129.19, 129.15)">p</text><text class="cls-4" transform="translate(166.89 121.71) rotate(10.78)">h</text><text class="cls-4" transform="matrix(0.85, 0.52, -0.52, 0.85, 203.46, 128.03)">a</text><text class="cls-4" transform="translate(234.87 146.48) rotate(52.1)">n</text><text class="cls-4" transform="matrix(0.36, 0.93, -0.93, 0.36, 257.34, 176.56)">t</text></svg>