<svg id="Laag_1" data-name="Laag 1" xmlns="http://www.w3.org/2000/svg" viewBox="0 0 418.92 417.57"><defs><style>.cls-1{opacity:0.46;}.cls-2{fill:#1d1d1b;stroke:#1d1d1b;stroke-miterlimit:10;stroke-width:2.1px;}.cls-2,.cls-3{opacity:0.42;}.cls-4{fill:#fff;}</style></defs><title>portfolioknop</title><g class="cls-1"><path class="cls-2" d="M74.91,74.65V490.13H491.73V74.65Z" transform="translate(-73.87 -73.61)"/><g class="cls-3"><path class="cls-4" d="M393.17,237.68a117.7,117.7,0,0,0-27.23-29.54,219.68,219.68,0,0,0-35.62-22.33q-19.29-9.69-35.63-19.62a122.32,122.32,0,0,1-27.23-21.87q-10.89-11.95-10.89-29.09,0-18.94,13.18-28.86T302,76.44a106.52,106.52,0,0,1,22,2.26q10.68,2.26,16.13,5l20.9,61.79h18.55q1.8-6.77,3.85-16.91t3.85-21.65q1.8-11.5,2.94-23.23c.26-2.73.49-5.3.69-7.81H213.1a75.56,75.56,0,0,0-13.55,19.08q-8.15,16.24-8.15,38.34,0,25.71,10.63,43.07a110.92,110.92,0,0,0,26.92,30,207.91,207.91,0,0,0,34.84,21.87q18.55,9.25,34.84,18.72a118.84,118.84,0,0,1,26.92,20.75q10.63,11.28,10.63,28,0,23-16.51,35.86t-41.4,12.85q-14.93,0-24-4.28t-14-9.24L227,283.37H198.66l0,.09q-2.27,10.82-4.3,22.78t-3.85,23.9a209.45,209.45,0,0,0-2.26,22.33q5,4.06,15.16,7.67a231.52,231.52,0,0,0,23.3,6.77,249.79,249.79,0,0,0,27.83,5,240.26,240.26,0,0,0,29.18,1.8q59.27,0,89.82-24.58t30.54-69.68Q404.07,254.6,393.17,237.68Z" transform="translate(-73.87 -73.61)"/><path class="cls-4" d="M251.16,291.71l.2,0v-30c-9.53.75-19.53,1.14-30.06,1.14h-74v17.4a112.51,112.51,0,0,0,18.38,8,152,152,0,0,0,19.3,5.27v25.07h66.16Z" transform="translate(-73.87 -73.61)"/><path class="cls-4" d="M419.31,433.23q0-19.68-7.58-34.12a75.56,75.56,0,0,0-19.53-24,86.86,86.86,0,0,0-26.88-14.65,151.39,151.39,0,0,0-29.63-6.87v-1.83a101.65,101.65,0,0,0,25.36-8.2H298.15c-.65.29-1.29.6-2,.88q-6.89.92-14.7,1.6t-15.62.69h-14.7V318.61H185v170.5h66.16V376.44h24.35A156.46,156.46,0,0,1,304.46,379a59.61,59.61,0,0,1,23,9.16A45.66,45.66,0,0,1,342.59,406q5.51,11.23,5.51,28.62,0,28.4-16.54,45.57A52.37,52.37,0,0,1,320.31,489h77.95a87.41,87.41,0,0,0,10-13.23Q419.31,458,419.31,433.23Z" transform="translate(-73.87 -73.61)"/></g></g></svg>