<svg id="Laag_1" data-name="Laag 1" xmlns="http://www.w3.org/2000/svg" viewBox="0 0 298.24 297.41"><defs><style>.cls-1{fill:none;stroke:#1d1d1b;stroke-miterlimit:10;stroke-width:1px;}.cls-2{fill:#1d1d1b;}</style></defs><title>sblogo</title><path class="cls-1" d="M266.78,119.57V416H564V119.57Z" transform="translate(-266.28 -119.07)"/><path class="cls-2" d="M493.74,236.09A84.1,84.1,0,0,0,474.31,215a156.59,156.59,0,0,0-25.41-16q-13.76-6.93-25.41-14a87.28,87.28,0,0,1-19.42-15.65,29.83,29.83,0,0,1-7.76-20.81q0-13.55,9.4-20.65t23-7.1a75.73,75.73,0,0,1,15.72,1.61,50.81,50.81,0,0,1,11.51,3.55l14.91,44.21h13.23q1.28-4.84,2.74-12.1t2.74-15.49q1.29-8.23,2.1-16.62c.19-1.95.35-3.79.49-5.59H365.32A54.05,54.05,0,0,0,355.66,134q-5.81,11.62-5.81,27.43,0,18.39,7.58,30.82a79.27,79.27,0,0,0,19.2,21.46,148.2,148.2,0,0,0,24.85,15.65q13.23,6.62,24.85,13.39a84.78,84.78,0,0,1,19.2,14.84q7.58,8.07,7.58,20,0,16.46-11.78,25.65t-29.53,9.2q-10.65,0-17.1-3.07a35.64,35.64,0,0,1-10-6.61l-9.47-33.95H355v.06q-1.62,7.74-3.07,16.29t-2.74,17.1a150.32,150.32,0,0,0-1.61,16q3.55,2.9,10.81,5.49A164.7,164.7,0,0,0,375,328.54a177.61,177.61,0,0,0,19.84,3.55,170.79,170.79,0,0,0,20.81,1.29q42.27,0,64.05-17.59t21.78-49.85Q501.5,248.2,493.74,236.09Z" transform="translate(-266.28 -119.07)"/><path class="cls-2" d="M392.46,274.75l.14,0V253.28c-6.8.54-13.93.82-21.44.82H318.42v12.45a80.1,80.1,0,0,0,13.11,5.73,108.15,108.15,0,0,0,13.76,3.77V294h47.18Z" transform="translate(-266.28 -119.07)"/><path class="cls-2" d="M512.38,376q0-14.08-5.41-24.41A54,54,0,0,0,493,334.38a61.88,61.88,0,0,0-19.17-10.48A107.67,107.67,0,0,0,452.75,319v-1.31a72.32,72.32,0,0,0,18.09-5.87H426c-.47.21-.92.43-1.4.63q-4.91.66-10.48,1.15t-11.14.49H392.46V294H345.29V416h47.18V335.37h17.36a111.22,111.22,0,0,1,20.64,1.8,42.43,42.43,0,0,1,16.38,6.55,32.64,32.64,0,0,1,10.81,12.78q3.93,8,3.93,20.48,0,20.32-11.79,32.6a37.36,37.36,0,0,1-8,6.35h55.59a62.51,62.51,0,0,0,7.15-9.46Q512.38,393.69,512.38,376Z" transform="translate(-266.28 -119.07)"/></svg>