<svg id="Laag_1" data-name="Laag 1" xmlns="http://www.w3.org/2000/svg" viewBox="0 0 529.01 387.44"><defs><style>.cls-1{fill:#4cbbb7;}.cls-2{fill:#fff;}.cls-3{font-size:113.59px;font-family:Anton-Regular, Anton;letter-spacing:0.01em;}.cls-3,.cls-5{fill:#4799b9;}.cls-4{fill:none;}.cls-6{fill:#face3e;}</style></defs><title>surf</title><path class="cls-1" d="M185.41,312.52q-13.43-15-13.43-48.3v-21.7h43.65v27.64q0,16.53,10.59,16.53,5.94,0,8.27-3.49t2.33-11.75q0-10.85-2.58-18a39.25,39.25,0,0,0-6.59-11.88q-4-4.78-14.34-14.85l-19.11-19.11Q172,186,172,159.61q0-28.41,13-43.27t38.1-14.85q30,0,43.14,15.89t13.17,49.72h-45.2L234,151.86a9.72,9.72,0,0,0-2.45-7,9,9,0,0,0-6.84-2.58q-5.17,0-7.75,2.84a11.09,11.09,0,0,0-2.58,7.75q0,10.85,12.4,22.47l25.83,24.8a148,148,0,0,1,15,16.66,65.47,65.47,0,0,1,9.56,18.6q3.61,10.72,3.62,25.44,0,32.81-12,49.72T229.06,327.5Q198.84,327.5,185.41,312.52Z" transform="translate(-156.44 -89.02)"/><path class="cls-1" d="M306.16,312q-13.31-15.5-13.3-46V103.56H336V264.22q0,10.59,2.07,16.53t8.78,5.94q6.71,0,8.78-5.81t2.07-16.66V103.56h43.14V266q0,30.48-13.3,46t-40.68,15.5Q319.46,327.5,306.16,312Z" transform="translate(-156.44 -89.02)"/><path class="cls-1" d="M417.87,103.56h68.19q16.27,0,25.18,7.36t12,20.66q3.1,13.31,3.1,34,0,18.86-4.91,29.45t-17,14.72q10.07,2.07,14.59,10.07t4.52,21.7L523,325.44H479.61V238.65q0-9.3-3.62-11.88t-13.17-2.58V325.44H417.87Zm55.79,82.14q9.3,0,9.3-20.15a82.35,82.35,0,0,0-.77-13.17q-.78-4.39-2.84-6.07a9.23,9.23,0,0,0-5.94-1.68H463.08V185.7Z" transform="translate(-156.44 -89.02)"/><path class="cls-1" d="M541.08,325.44V103.56h88.86V146.7H585.77v35.39h41.84V224.7H585.77V325.44Z" transform="translate(-156.44 -89.02)"/><path class="cls-2" d="M177.47,227.77c23.18-52.5,66.25-56.13,102.67-24.81s77.27,8.84,101.52-10.18S441.75,205,455.93,218.5s46.65,10,70.45-12.52,59.38.72,73.54,14.76,43.61,18.24,75.83-.21c2.23,21.21-42.58,82.85-106.44,31.11-27.41-21-49.72-21.86-83.66,4.41s-70.54-.37-76.62-10.57-49.61-31.83-81.38,2.74-76.52-9.4-84-14.38S202.22,211.12,177.47,227.77Z" transform="translate(-156.44 -89.02)"/><text class="cls-3" transform="translate(278.61 350.41)">CLUB</text><rect class="cls-4" width="501.47" height="364.09"/><path class="cls-5" d="M183,350.84h-2.2q-.29-2.13-2.1-2.13a2.94,2.94,0,0,0-1.77.44,1.54,1.54,0,0,0-.59,1.32q0,.91,3.23,2.56,2.63,1.35,3,2.24a4.56,4.56,0,0,1,.4,1.89,4,4,0,0,1-1.3,3,4.36,4.36,0,0,1-3.12,1.25H176.4q-4.42,0-4.42-4.23h2.22q.26,2.12,2.08,2.12a2.91,2.91,0,0,0,1.77-.45,1.55,1.55,0,0,0,.59-1.32q0-.89-3.22-2.56-2.64-1.34-3-2.23a4.57,4.57,0,0,1-.4-1.89,4,4,0,0,1,1.31-3,4.36,4.36,0,0,1,3.12-1.25h2.22Q182.78,346.59,183,350.84Z" transform="translate(-156.44 -89.02)"/><path class="cls-5" d="M187.49,346.59h4.42v2.13a2.09,2.09,0,0,1,.56-1.6,2.35,2.35,0,0,1,1.66-.53h2.22a4.34,4.34,0,0,1,3.12,1.26,4,4,0,0,1,1.3,3v6.36a4,4,0,0,1-1.3,3,4.36,4.36,0,0,1-3.12,1.25h-4.45v4.23h-4.42Zm4.42,12.71h2.22a2.2,2.2,0,0,0,1.56-.62,2,2,0,0,0,.66-1.48v-6.36a2,2,0,0,0-.66-1.49,2.2,2.2,0,0,0-1.56-.62,2.15,2.15,0,0,0-1.57.62,2,2,0,0,0-.65,1.5Z" transform="translate(-156.44 -89.02)"/><path class="cls-5" d="M209.64,346.59h4.45a4.34,4.34,0,0,1,3.12,1.26,4,4,0,0,1,1.3,3v6.36a4,4,0,0,1-1.3,3,4.34,4.34,0,0,1-3.12,1.26h-4.45a4.36,4.36,0,0,1-3.12-1.25,4,4,0,0,1-1.3-3v-6.36a4,4,0,0,1,1.31-3A4.36,4.36,0,0,1,209.64,346.59Zm0,4.25v6.36a2,2,0,0,0,.65,1.48,2.29,2.29,0,0,0,3.15,0,2,2,0,0,0,.65-1.48v-6.36a2,2,0,0,0-.66-1.5,2.27,2.27,0,0,0-3.13,0A2,2,0,0,0,209.64,350.84Z" transform="translate(-156.44 -89.02)"/><path class="cls-5" d="M227.36,361.43h-4.42V346.59h4.42v4.25a5.12,5.12,0,0,1,1.37-3.19,4.27,4.27,0,0,1,3.07-1.06H234v4.25h-4.42a2.2,2.2,0,0,0-1.57.62,2,2,0,0,0-.65,1.48Z" transform="translate(-156.44 -89.02)"/><path class="cls-5" d="M238.45,342.36h4.42v4.23h2.22v2.13h-2.22v8.48a1.85,1.85,0,0,0,.71,1.56,2.21,2.21,0,0,0,1.31.54h.21v2.13h-2.22a4.35,4.35,0,0,1-3.13-1.25,4,4,0,0,1-1.3-3v-8.48h-2.22v-2.13h2.22Z" transform="translate(-156.44 -89.02)"/><path class="cls-5" d="M258.39,346.59h4.42v7.6a6.83,6.83,0,0,1-2.23,5.1,7.44,7.44,0,0,1-5.34,2.14h-5.72V346.59h4.42v12.71h2.22a2.18,2.18,0,0,0,1.57-.63,2,2,0,0,0,.65-1.48Z" transform="translate(-156.44 -89.02)"/><path class="cls-5" d="M280.53,355.08h-8.87v2.13a2,2,0,0,0,.65,1.48,2.18,2.18,0,0,0,1.57.63h2.22q2.2,0,2.2-2.11h2.22q-.52,4.23-4.42,4.23h-4.45a4.36,4.36,0,0,1-3.12-1.25,4,4,0,0,1-1.3-3v-6.36a4,4,0,0,1,1.31-3,4.36,4.36,0,0,1,3.12-1.25h4.45a4.34,4.34,0,0,1,3.12,1.26,4,4,0,0,1,1.3,3ZM271.66,353h4.45v-2.11a2,2,0,0,0-.66-1.5,2.27,2.27,0,0,0-3.13,0,2,2,0,0,0-.65,1.5Z" transform="translate(-156.44 -89.02)"/><path class="cls-5" d="M289.38,361.43H285V346.59h4.42v4.25a5.12,5.12,0,0,1,1.37-3.19,4.27,4.27,0,0,1,3.07-1.06H296v4.25h-4.42a2.2,2.2,0,0,0-1.57.62,2,2,0,0,0-.65,1.48Z" transform="translate(-156.44 -89.02)"/><path class="cls-5" d="M311.55,355.08h-8.87v2.13a2,2,0,0,0,.65,1.48,2.18,2.18,0,0,0,1.57.63h2.22q2.2,0,2.2-2.11h2.22q-.52,4.23-4.42,4.23h-4.45a4.36,4.36,0,0,1-3.12-1.25,4,4,0,0,1-1.3-3v-6.36a4,4,0,0,1,1.31-3,4.36,4.36,0,0,1,3.12-1.25h4.45a4.34,4.34,0,0,1,3.12,1.26,4,4,0,0,1,1.3,3ZM302.68,353h4.45v-2.11a2,2,0,0,0-.66-1.5,2.27,2.27,0,0,0-3.13,0,2,2,0,0,0-.65,1.5Z" transform="translate(-156.44 -89.02)"/><path class="cls-5" d="M316,361.43V346.59h4.42v2.13a2.57,2.57,0,0,1,.69-1.6,2.14,2.14,0,0,1,1.53-.53h2.22a4.34,4.34,0,0,1,3.12,1.26,4,4,0,0,1,1.3,3v10.59h-4.42V350.84a2,2,0,0,0-.66-1.5,2.27,2.27,0,0,0-3.13,0,2,2,0,0,0-.65,1.5v10.59Z" transform="translate(-156.44 -89.02)"/><path class="cls-5" d="M333.69,344.49v-2.13h4.42v2.13Zm0,16.94V346.59h4.42v14.84Z" transform="translate(-156.44 -89.02)"/><path class="cls-5" d="M355.85,346.59v17a4,4,0,0,1-1.31,3,4.36,4.36,0,0,1-3.11,1.25H347q-3.92,0-4.42-4.23h2.22a2,2,0,0,0,2.2,2.11h2.22a2.2,2.2,0,0,0,1.56-.62,2,2,0,0,0,.66-1.48v-4.25a2.08,2.08,0,0,1-2.22,2.13H347a4.36,4.36,0,0,1-3.12-1.25,4,4,0,0,1-1.3-3v-6.36a4,4,0,0,1,1.31-3,4.36,4.36,0,0,1,3.12-1.25Zm-4.42,2.13h-2.22a2.19,2.19,0,0,0-1.57.63,2,2,0,0,0-.65,1.5v6.36a2,2,0,0,0,.65,1.48,2.29,2.29,0,0,0,3.15,0,2,2,0,0,0,.65-1.48Z" transform="translate(-156.44 -89.02)"/><path class="cls-5" d="M360.28,344.49v-2.13h4.42v2.13Zm0,16.94V346.59h4.42v14.84Z" transform="translate(-156.44 -89.02)"/><path class="cls-5" d="M369.15,361.43V346.59h4.42v2.13a2.57,2.57,0,0,1,.69-1.6,2.14,2.14,0,0,1,1.53-.53H378a4.34,4.34,0,0,1,3.12,1.26,4,4,0,0,1,1.3,3v10.59H378V350.84a2,2,0,0,0-.66-1.5,2.27,2.27,0,0,0-3.13,0,2,2,0,0,0-.65,1.5v10.59Z" transform="translate(-156.44 -89.02)"/><path class="cls-5" d="M400.16,346.59v17a4,4,0,0,1-1.31,3,4.36,4.36,0,0,1-3.11,1.25h-4.45q-3.92,0-4.42-4.23h2.22a2,2,0,0,0,2.2,2.11h2.22a2.2,2.2,0,0,0,1.56-.62,2,2,0,0,0,.66-1.48v-4.25a2.08,2.08,0,0,1-2.22,2.13h-2.22a4.36,4.36,0,0,1-3.12-1.25,4,4,0,0,1-1.3-3v-6.36a4,4,0,0,1,1.31-3,4.36,4.36,0,0,1,3.12-1.25Zm-4.42,2.13h-2.22a2.19,2.19,0,0,0-1.57.63,2,2,0,0,0-.65,1.5v6.36a2,2,0,0,0,.65,1.48,2.29,2.29,0,0,0,3.15,0,2,2,0,0,0,.65-1.48Z" transform="translate(-156.44 -89.02)"/><path class="cls-6" d="M554.86,426.2s-32.13-81.05,7.48-135.86c0,0,38.07,34.35,9.9,135.86l-9.64-5Z" transform="translate(-156.44 -89.02)"/><polygon class="cls-5" points="403.23 334.35 405.9 201.32 409.08 334.34 403.23 334.35"/></svg>