<svg xmlns="http://www.w3.org/2000/svg" viewBox="0 0 713.8 583.56"><defs><style>.cls-1{fill:#7a6f5c;}</style></defs><title>Middel 5_500</title><g id="Laag_2" data-name="Laag 2"><g id="Laag_1-2" data-name="Laag 1"><path class="cls-1" d="M0,514.5s124.71,17.82,216.76-60.87c0,0-98.66-.77-133.27-100.75,0,0,49.22,4.23,63.83-3.85,0,0-115-24-116-143.94,0,0,38.75,21.22,66.44,17.53,0,0-108.88-66.44-46.14-195.62,0,0,105.19,139.33,302.65,154.09,0,0-24.27-85.47,49.23-147.3S568.62,6.38,604.21,46.63c0,0,54.77-14.64,90.8-35,0,0-7.83,43.08-61.09,78.32,0,0,42.29-2.35,79.89-19.58,0,0-30.54,50.91-69.71,72.84C664.66,196.35,560.58,780.42,0,514.5Z"/></g></g></svg>